<svg width="186" height="40" viewBox="0 0 186 40" fill="none" xmlns="http://www.w3.org/2000/svg">
<path d="M4 24C1.79086 21.7909 1.79086 18.2091 4 16L16 4C18.2091 1.79086 21.7909 1.79086 24 4L36 16C38.2091 18.2091 38.2091 21.7909 36 24L24 36C21.7909 38.2091 18.2091 38.2091 16 36L4 24Z" fill="#41B983"/>
<path d="M18.9148 19.7674C19.3166 20.8229 19.2738 21.9214 18.0686 22.359C15.5897 23.2773 15.034 20.8658 14.9998 20.7457L18.9148 19.7674ZM14.6152 19.0723L18.3079 18.154C18.1455 17.2529 18.3934 16.3519 18.3934 15.2877C18.3934 13.846 17.2565 11.0227 15.4443 11.4775C13.3757 11.9924 13.0765 14.3008 13.1535 15.4165C13.2561 16.5321 14.5553 18.9178 14.6152 19.0723ZM24.9924 26.7443C24.9668 26.873 24.4026 29.2758 21.9237 28.3662C20.727 27.9199 20.6757 26.8215 21.0775 25.7659L24.9924 26.7443ZM26.8303 21.4236C26.9157 20.308 26.6251 17.991 24.5479 17.4761C22.7443 17.0041 21.6074 19.8446 21.6074 21.2949C21.6074 22.3504 21.8468 23.2515 21.7015 24.1526L25.3771 25.0708C25.4455 24.9164 26.7362 22.5307 26.8303 21.4236Z" fill="white"/>
<path d="M67.7553 23.5966C67.6841 25.1438 67.2667 26.5129 66.5033 27.7039C65.7399 28.8846 64.6659 29.8008 63.2816 30.4522C61.9074 31.1037 60.3347 31.4294 58.5636 31.4294C55.6422 31.4294 53.3417 30.4776 51.6622 28.5742C49.9826 26.6707 49.1429 23.9834 49.1429 20.5123V19.413C49.1429 17.2347 49.5195 15.3312 50.2727 13.7025C51.0362 12.0637 52.1304 10.8015 53.5555 9.91591C54.9806 9.02015 56.6296 8.57227 58.5025 8.57227C61.2 8.57227 63.3681 9.2848 65.007 10.7099C66.6458 12.1248 67.5772 14.0792 67.8011 16.573H62.4571C62.4164 15.2192 62.0754 14.2471 61.4341 13.6567C60.7928 13.0663 59.8157 12.7711 58.5025 12.7711C57.1691 12.7711 56.1919 13.2699 55.571 14.2675C54.95 15.265 54.6243 16.858 54.5938 19.0466V20.6192C54.5938 22.991 54.889 24.6858 55.4793 25.7037C56.0799 26.7216 57.108 27.2306 58.5636 27.2306C59.7953 27.2306 60.7369 26.9404 61.3883 26.3602C62.0398 25.78 62.3858 24.8588 62.4266 23.5966H67.7553Z" fill="white"/>
<path d="M76.3057 27.0014H86.9327V31.124H69.6181V28.2993L80.2145 13.0306H69.557V8.89282H86.8258V11.6412L76.3057 27.0014Z" fill="white"/>
<path d="M96.8268 21.2145C94.3126 20.4918 92.4803 19.6062 91.3301 18.5578C90.1901 17.4992 89.62 16.1962 89.62 14.649C89.62 12.8982 90.3173 11.4528 91.7118 10.3128C93.1165 9.16252 94.9386 8.5874 97.178 8.5874C98.7049 8.5874 100.064 8.8826 101.255 9.47299C102.456 10.0634 103.382 10.8777 104.034 11.916C104.695 12.9542 105.026 14.0892 105.026 15.3209H102.079C102.079 13.9772 101.652 12.9237 100.797 12.1603C99.9416 11.3867 98.7354 10.9998 97.178 10.9998C95.7326 10.9998 94.6027 11.3205 93.7883 11.9618C92.9842 12.5929 92.5821 13.4734 92.5821 14.6032C92.5821 15.5092 92.9638 16.2777 93.7273 16.9088C94.5009 17.5297 95.8089 18.0997 97.6513 18.6189C99.5039 19.138 100.949 19.7132 101.988 20.3442C103.036 20.9652 103.81 21.693 104.308 22.5277C104.817 23.3624 105.072 24.3446 105.072 25.4745C105.072 27.2762 104.369 28.7216 102.965 29.8108C101.56 30.8898 99.6821 31.4293 97.3307 31.4293C95.8038 31.4293 94.3787 31.1392 93.0554 30.559C91.7322 29.9686 90.7091 29.1644 89.9865 28.1465C89.2739 27.1286 88.9177 25.9733 88.9177 24.6805H91.8645C91.8645 26.0242 92.3582 27.0879 93.3455 27.8717C94.3431 28.6453 95.6715 29.0321 97.3307 29.0321C98.8779 29.0321 100.064 28.7165 100.888 28.0854C101.713 27.4544 102.125 26.5942 102.125 25.505C102.125 24.4159 101.743 23.5761 100.98 22.9857C100.216 22.3852 98.8321 21.7948 96.8268 21.2145Z" fill="white"/>
<path d="M125.929 31.124H122.982V20.8482H111.775V31.124H108.843V8.89282H111.775V18.451H122.982V8.89282H125.929V31.124Z" fill="white"/>
<path d="M148.236 20.726C148.236 22.9043 147.87 24.8078 147.137 26.4364C146.404 28.0549 145.366 29.2917 144.022 30.1467C142.678 31.0017 141.111 31.4293 139.319 31.4293C137.569 31.4293 136.017 31.0017 134.662 30.1467C133.309 29.2815 132.255 28.0549 131.502 26.467C130.759 24.8689 130.377 23.0213 130.357 20.9245V19.3213C130.357 17.1836 130.728 15.2954 131.471 13.6566C132.214 12.0178 133.263 10.7657 134.617 9.90051C135.981 9.0251 137.538 8.5874 139.289 8.5874C141.07 8.5874 142.638 9.02001 143.991 9.88524C145.355 10.7403 146.404 11.9872 147.137 13.6261C147.87 15.2547 148.236 17.1531 148.236 19.3213V20.726ZM145.32 19.2907C145.32 16.6543 144.791 14.6338 143.732 13.2291C142.673 11.8142 141.193 11.1067 139.289 11.1067C137.436 11.1067 135.975 11.8142 134.907 13.2291C133.848 14.6338 133.303 16.5882 133.273 19.0922V20.726C133.273 23.2809 133.807 25.2913 134.876 26.757C135.955 28.2127 137.436 28.9405 139.319 28.9405C141.213 28.9405 142.678 28.2534 143.717 26.8792C144.755 25.4949 145.29 23.515 145.32 20.9397V19.2907Z" fill="white"/>
<path d="M165.2 20.8482H155.565V28.7268H166.757V31.124H152.634V8.89282H166.605V11.3053H155.565V18.451H165.2V20.8482Z" fill="white"/>
<path d="M176.957 21.2145C174.442 20.4918 172.61 19.6062 171.46 18.5578C170.32 17.4992 169.75 16.1962 169.75 14.649C169.75 12.8982 170.447 11.4528 171.842 10.3128C173.246 9.16252 175.069 8.5874 177.308 8.5874C178.835 8.5874 180.194 8.8826 181.385 9.47299C182.586 10.0634 183.512 10.8777 184.163 11.916C184.825 12.9542 185.156 14.0892 185.156 15.3209H182.209C182.209 13.9772 181.782 12.9237 180.926 12.1603C180.071 11.3867 178.865 10.9998 177.308 10.9998C175.862 10.9998 174.733 11.3205 173.918 11.9618C173.114 12.5929 172.712 13.4734 172.712 14.6032C172.712 15.5092 173.094 16.2777 173.857 16.9088C174.631 17.5297 175.939 18.0997 177.781 18.6189C179.634 19.138 181.079 19.7132 182.117 20.3442C183.166 20.9652 183.939 21.693 184.438 22.5277C184.947 23.3624 185.202 24.3446 185.202 25.4745C185.202 27.2762 184.499 28.7216 183.095 29.8108C181.69 30.8898 179.812 31.4293 177.461 31.4293C175.934 31.4293 174.509 31.1392 173.185 30.559C171.862 29.9686 170.839 29.1644 170.116 28.1465C169.403 27.1286 169.047 25.9733 169.047 24.6805H171.994C171.994 26.0242 172.488 27.0879 173.475 27.8717C174.473 28.6453 175.801 29.0321 177.461 29.0321C179.007 29.0321 180.194 28.7165 181.018 28.0854C181.842 27.4544 182.255 26.5942 182.255 25.505C182.255 24.4159 181.873 23.5761 181.11 22.9857C180.346 22.3852 178.962 21.7948 176.957 21.2145Z" fill="white"/>
</svg>
